<?xml version="1.0" encoding="utf-8"?>
<!-- Generator: Adobe Illustrator 26.0.1, SVG Export Plug-In . SVG Version: 6.00 Build 0)  -->
<svg version="1.1" xmlns="http://www.w3.org/2000/svg" xmlns:xlink="http://www.w3.org/1999/xlink" x="0px" y="0px"
	 viewBox="0 0 128 128" style="enable-background:new 0 0 128 128;" xml:space="preserve">
<style type="text/css">
	.st0{display:none;}
	.st1{display:inline;}
	.st2{fill-rule:evenodd;clip-rule:evenodd;}
	.st3{fill-rule:evenodd;clip-rule:evenodd;fill:#000333;}
</style>
<g id="Layer_2_00000129890100527556889230000002718733365312905349_" class="st0">
	<g transform="translate(0,-952.36216)" class="st1">
		<path class="st2" d="M39.6,1032.2v19.2c0,0.6,0.3,1.1,0.9,1.4l22.8,10.4c0.4,0.2,0.9,0.2,1.3,0l22.8-12.2c0.5-0.3,0.8-0.8,0.8-1.3
			v-17.4h-3v16.5l-21.4,11.4l-21.3-9.7v-18.2h-2.9V1032.2z"/>
		<path d="M26.3,989.7c-0.2,0-0.4,0.1-0.6,0.2c-3.9,2-7.9,3.9-11.9,5.9c-0.5,0.3-0.8,0.8-0.8,1.3v12.1c0,0.6,0.3,1.1,0.8,1.4
			c4,2,7.9,3.9,11.8,5.9c0.4,0.2,1,0.2,1.4,0c4-2,7.8-4.1,11.8-5.9c0.5-0.2,0.9-0.8,0.9-1.4v-12.1c0-0.6-0.3-1.1-0.8-1.4
			c-4-2-7.9-3.9-11.9-5.9C26.8,989.7,26.6,989.7,26.3,989.7L26.3,989.7z M26.4,992.9c3.5,1.7,6.9,3.4,10.3,5.2v10.2
			c-3.5,1.7-6.9,3.4-10.3,5.1c-3.4-1.8-6.9-3.5-10.3-5.2V998C19.4,996.3,22.9,994.6,26.4,992.9z"/>
		<path class="st2" d="M2,1018.1v19.2c0,0.6,0.3,1.1,0.9,1.4l22.8,10.4c0.4,0.2,1,0.2,1.4-0.1l15.5-8.6l-1.5-2.7l-14.8,8.2
			l-21.2-9.7V1018L2,1018.1L2,1018.1z"/>
		<path d="M101.6,989.7c-0.2,0-0.4,0.1-0.6,0.2c-3.9,2-7.9,3.9-11.9,5.9c-0.5,0.3-0.8,0.8-0.8,1.4v12.1c0,0.6,0.3,1.1,0.9,1.4
			c4,1.8,7.8,3.9,11.8,5.9c0.4,0.2,0.9,0.2,1.4,0c3.9-2,7.9-3.9,11.8-5.9c0.5-0.3,0.8-0.8,0.8-1.4v-12.1c0-0.6-0.3-1.1-0.8-1.3
			c-3.9-2-7.9-4-11.9-5.9C102.1,989.7,101.8,989.7,101.6,989.7L101.6,989.7z M101.6,992.9c3.5,1.7,6.9,3.4,10.3,5.2v10.2
			c-3.4,1.7-6.9,3.4-10.3,5.2c-3.4-1.7-6.8-3.5-10.3-5.1v-10.2C94.8,996.3,98.2,994.6,101.6,992.9z"/>
		<path class="st2" d="M123,1018.1v18.2l-21.2,9.7l-14.8-8.2l-1.5,2.7l15.5,8.6c0.4,0.2,0.9,0.2,1.4,0.1l22.8-10.4
			c0.5-0.2,0.9-0.8,0.9-1.4v-19.2L123,1018.1L123,1018.1z"/>
		<path d="M63.9,1003.8c-0.2,0-0.4,0.1-0.6,0.2c-3.9,2-7.9,3.9-11.9,5.9c-0.5,0.3-0.8,0.8-0.8,1.3v12.1c0,0.6,0.3,1.1,0.8,1.4
			c4,2,7.9,3.9,11.8,5.9c0.4,0.2,0.9,0.2,1.4,0c4-2,7.8-4.1,11.8-5.9c0.5-0.2,0.9-0.8,0.9-1.4v-12.1c0-0.6-0.3-1.1-0.8-1.4
			c-3.9-2-7.9-3.9-11.9-5.9C64.4,1003.9,64.2,1003.8,63.9,1003.8L63.9,1003.8z M64,1007c3.4,1.7,6.9,3.4,10.3,5.2v10.2
			c-3.5,1.6-6.9,3.4-10.3,5.1c-3.4-1.8-6.9-3.4-10.3-5.2v-10.2C57,1010.4,60.5,1008.7,64,1007z"/>
		<path d="M63.9,969.4c-0.2,0-0.4,0.1-0.6,0.2c-3.9,2-7.9,3.9-11.9,5.9c-0.5,0.3-0.8,0.8-0.8,1.3v12.1c0,0.6,0.3,1.1,0.8,1.4
			c4,2,7.9,3.9,11.8,5.9c0.4,0.2,0.9,0.2,1.4,0c4-2,7.8-4.1,11.8-5.9c0.5-0.2,0.9-0.8,0.9-1.4v-12.1c0-0.6-0.3-1.1-0.8-1.4
			c-3.9-2-7.9-3.9-11.9-5.9C64.4,969.4,64.2,969.3,63.9,969.4L63.9,969.4z M64,972.6c3.5,1.7,6.9,3.4,10.3,5.2V988
			c-3.5,1.7-6.9,3.4-10.3,5.2c-3.4-1.8-6.9-3.5-10.3-5.2v-10.2C57,976,60.5,974.3,64,972.6z"/>
	</g>
</g>
<g id="Layer_3">
	<g>
		<path class="st3" d="M46.9,3.6c8.2,0,15.6,3.3,21,8.7s8.7,12.8,8.7,21s-3.3,15.6-8.7,21c-5.4,5.3-12.8,8.7-21,8.7
			s-15.6-3.3-21-8.7s-8.7-12.8-8.7-21c0-8.2,3.3-15.6,8.7-21C31.3,6.9,38.8,3.6,46.9,3.6L46.9,3.6z M67,13.2
			c5.1,5.1,8.3,12.2,8.3,20.1s-3.2,15-8.3,20.1s-12.2,8.3-20.1,8.3s-15-3.2-20.1-8.3c-5.1-5.1-8.3-12.3-8.3-20.1s3.2-15,8.3-20.1
			C32,8,39.1,4.9,46.9,4.9S61.9,8,67,13.2z"/>
	</g>
	<g>
		<path class="st3" d="M95.5,51.9c8.6,0,16.3,3.5,21.9,9.1c5.6,5.6,9.1,13.4,9.1,21.9s-3.5,16.3-9.1,21.9
			c-5.6,5.6-13.4,9.1-21.9,9.1s-16.3-3.5-21.9-9.1c-5.6-5.6-9.1-13.4-9.1-21.9c0-8.6,3.5-16.3,9.1-21.9C79.3,55.3,87,51.9,95.5,51.9
			L95.5,51.9z M116.5,61.9c5.4,5.4,8.7,12.8,8.7,21s-3.3,15.6-8.7,21s-12.8,8.7-21,8.7s-15.6-3.3-21-8.7c-5.3-5.4-8.7-12.8-8.7-21
			s3.4-15.6,8.7-21c5.4-5.4,12.8-8.7,21-8.7S111.1,56.5,116.5,61.9z"/>
	</g>
	<g>
		<path class="st3" d="M99.3,14.2c4.3,0,8.1,1.7,10.9,4.5s4.5,6.7,4.5,10.9s-1.7,8.1-4.5,10.9c-2.8,2.8-6.7,4.5-10.9,4.5
			c-4.3,0-8.1-1.7-10.9-4.5c-2.8-2.8-4.5-6.7-4.5-10.9c0-4.3,1.7-8.1,4.5-10.9C91.2,15.9,95,14.2,99.3,14.2L99.3,14.2z M109.8,19.2
			c2.7,2.7,4.3,6.4,4.3,10.5s-1.7,7.8-4.3,10.5s-6.4,4.3-10.5,4.3c-4.1,0-7.8-1.7-10.5-4.3c-2.7-2.7-4.3-6.4-4.3-10.5
			s1.7-7.8,4.3-10.5c2.7-2.7,6.4-4.3,10.5-4.3C103.4,14.9,107.1,16.5,109.8,19.2z"/>
	</g>
	<g>
		<path class="st3" d="M43.6,87.1c5.1,0,9.7,2,13,5.4c3.3,3.3,5.4,7.9,5.4,12.9c0,5-2,9.6-5.4,12.9s-7.9,5.4-13,5.4s-9.7-2-13-5.4
			s-5.4-7.9-5.4-12.9c0-5.1,2-9.6,5.4-12.9C34,89.1,38.5,87.1,43.6,87.1L43.6,87.1z M56,93c3.2,3.2,5.1,7.5,5.1,12.4
			c0,4.9-2,9.2-5.1,12.4c-3.2,3.2-7.5,5.1-12.4,5.1s-9.2-2-12.4-5.1c-3.1-3.2-5.1-7.6-5.1-12.4s2-9.2,5.1-12.4
			c3.2-3.2,7.6-5.1,12.4-5.1S52.8,89.8,56,93z"/>
	</g>
	<g>
		<path class="st3" d="M16.3,57.8c4.1,0,7.9,1.7,10.6,4.4c2.7,2.7,4.4,6.4,4.4,10.6c0,4.1-1.7,7.9-4.4,10.6
			c-2.7,2.7-6.5,4.4-10.6,4.4S8.4,86,5.7,83.3c-2.7-2.7-4.4-6.4-4.4-10.6c0-4.1,1.7-7.9,4.4-10.6C8.5,59.5,12.2,57.8,16.3,57.8
			L16.3,57.8z M26.4,62.6c2.6,2.6,4.2,6.1,4.2,10.1s-1.6,7.5-4.2,10.1c-2.6,2.6-6.2,4.2-10.1,4.2s-7.5-1.6-10.1-4.2
			C3.6,80.2,2,76.7,2,72.7s1.6-7.5,4.2-10.1c2.6-2.6,6.2-4.2,10.1-4.2S23.8,60,26.4,62.6z"/>
	</g>
</g>
</svg>
