<?xml version="1.0" encoding="utf-8"?>
<!-- Generator: Adobe Illustrator 26.0.1, SVG Export Plug-In . SVG Version: 6.00 Build 0)  -->
<svg version="1.1" id="Layer_3" xmlns="http://www.w3.org/2000/svg" xmlns:xlink="http://www.w3.org/1999/xlink" x="0px" y="0px"
	 viewBox="0 0 128 128" style="enable-background:new 0 0 128 128;" xml:space="preserve">
<style type="text/css">
        .st0 {
            fill: #999; /* Change this to your desired color */
        }
    </style>
<g>
	<g>
		<g transform="translate(-1051.000000, -2920.000000)">
			<g transform="translate(275.000000, 1935.000000)">
				<g transform="translate(75.000000, 512.000000)">
					<g transform="translate(701.000000, 473.000000)">
						<path class="st0" d="M64,72.2l-40.4,40.4c-2.3,2.3-5.9,2.3-8.2,0c-2.3-2.3-2.3-5.9,0-8.1L55.9,64L15.5,23.6
							c-2.3-2.3-2.3-5.9,0-8.1c2.3-2.3,5.9-2.3,8.2,0L64,55.8l40.4-40.4c2.3-2.3,5.9-2.3,8.2,0c2.3,2.3,2.3,5.9,0,8.1L72.1,64l0,0
							L64,72.2L64,72.2z M104.4,112.5L72.2,80.3l8.2-8.2l32.2,32.2c2.3,2.2,2.3,5.9,0,8.1C110.3,114.8,106.6,114.8,104.4,112.5z"/>
					</g>
				</g>
			</g>
		</g>
	</g>
</g>
</svg>
