<?xml version="1.0" encoding="utf-8"?>
<!-- Generator: Adobe Illustrator 26.0.1, SVG Export Plug-In . SVG Version: 6.00 Build 0)  -->
<svg version="1.1" id="Layer_3" xmlns="http://www.w3.org/2000/svg" xmlns:xlink="http://www.w3.org/1999/xlink" x="0px" y="0px"
	 viewBox="0 0 128 128" style="enable-background:new 0 0 128 128;" xml:space="preserve">
<style type="text/css">
	.st0{fill:#FFFFFF;}
</style>
<g>
	<path d="M120.78,30.12c-8.73,0-17.52,0-26.67,0c0,31.48,0,62.64,0,94.05c-26.14,0-51.92,0-78.1,0c0-2.79,0-5.54,0-8.6
		c-3.12,0-5.84,0-9.01,0c0-1.43,0-2.54,0-3.64C7,81,6.99,50.09,7.01,19.17c0-9.62,5.79-15.27,15.7-15.29
		c24.46-0.03,48.93,0.04,73.39-0.05c6.17-0.02,10.5,2.64,13.76,7.54c0.7,1.05,1.76,2.07,2.89,2.66
		C118.98,17.25,121.85,22.72,120.78,30.12z M82.25,112.69c0-1.67,0-3.11,0-4.54c0-27.37-0.02-54.74,0.01-82.11
		c0.01-6.75-1.27-13.84,5.62-19.45c-1.92,0-2.86,0-3.8,0c-20.31,0.01-40.62,0-60.93,0.01c-8.94,0.01-13.52,4.5-13.52,13.27
		c0,29.66,0,59.32,0,88.97c0,1.22,0,2.43,0,3.85C33.92,112.69,57.81,112.69,82.25,112.69z M19,121.39c24.17,0,48.12,0,72.26,0
		c0-1.52,0-2.76,0-4c0-30.07-0.01-60.12,0.02-90.19c0.01-6.88,4.07-12.26,10.49-13.96c1.59-0.42,3.28-0.48,5.33-0.78
		c-2.25-3.41-4.99-5.48-8.81-5.82C90.51,5.94,84.91,11.12,84.9,19c-0.01,30.9,0,61.81,0,92.7c0,1.21,0,2.4,0,3.8
		c-1.75,0-3.01,0-4.27,0c-19.13,0-38.26,0-57.4,0.01c-4.87,0-4.88,0-4.51,4.88C18.74,120.68,18.88,120.97,19,121.39z M94.11,27.16
		c7.98,0,15.97,0,23.94,0c0.16-6.68-4.8-11.65-11.49-11.76C99.29,15.28,94.09,20.11,94.11,27.16z"/>
	<path class="st0" d="M82.25,112.69c-24.45,0-48.32,0-72.62,0c0-1.41,0-2.62,0-3.85c0-29.66-0.01-59.32,0-88.97
		c0-8.76,4.58-13.25,13.52-13.26c20.31-0.01,40.62-0.01,60.92-0.01c0.94,0,1.88,0,3.8,0c-6.89,5.61-5.61,12.69-5.62,19.45
		c-0.03,27.37-0.01,54.74-0.01,82.11C82.25,109.59,82.25,111.01,82.25,112.69z M72.52,18.28c0.84-2.23-0.13-2.72-2.07-2.72
		c-16.38,0.04-32.76,0.04-49.14,0c-2.08-0.01-2.7,0.71-1.87,2.72C37.06,18.28,54.69,18.28,72.52,18.28z M19.41,48.14
		c-0.21,0.28-0.43,0.54-0.64,0.82c0.74,0.62,1.48,1.79,2.23,1.79c16.6,0.1,33.18,0.09,49.78,0.07c2.12,0,2.12-0.12,1.51-2.67
		C54.67,48.14,37.04,48.14,19.41,48.14z M72.61,59.48c0.34-1.54,0.51-2.67-1.7-2.66c-16.59,0.04-33.18,0.05-49.77,0
		c-2.03-0.01-2.38,0.85-1.78,2.66C37.04,59.48,54.77,59.48,72.61,59.48z M19.34,89.4c-0.54,1.74-0.34,2.66,1.75,2.66
		c16.59-0.04,33.17-0.03,49.76,0c2.07,0,2.31-0.93,1.65-2.66C54.79,89.4,37.08,89.4,19.34,89.4z M19.48,98.08
		c-1.12,2.79,0.44,2.82,2.24,2.82c16.27-0.03,32.54-0.01,48.81-0.03c0.7,0,1.42-0.14,2.12-0.23c0.17-0.31,0.33-0.64,0.5-0.95
		c-0.84-0.54-1.66-1.52-2.51-1.54c-5.1-0.15-10.2-0.08-15.31-0.08C43.44,98.08,31.55,98.08,19.48,98.08z M19.44,24.65
		c-1.09,2.59,0.52,2.56,2.29,2.56c16.47-0.02,32.95-0.01,49.43-0.02c0.49,0,0.99-0.1,1.41-0.14c0.95-2.75-0.81-2.57-2.48-2.57
		c-16.16,0.01-32.32-0.01-48.48,0C20.87,24.48,20.14,24.6,19.44,24.65z M72.55,68.35c0.54-1.64,0.47-2.65-1.69-2.64
		c-16.6,0.05-33.18,0.04-49.78,0c-2.09-0.01-2.32,0.93-1.73,2.64C37.08,68.35,54.81,68.35,72.55,68.35z M19.36,80.52
		c-0.68,1.99-0.09,2.66,1.83,2.65c16.49-0.05,32.97-0.05,49.46,0.01c2.19,0.01,2.56-0.8,1.85-2.66
		C54.8,80.52,37.16,80.52,19.36,80.52z M18.78,34.98c0.26,0.28,0.5,0.56,0.76,0.85c17.71,0,35.41,0,53.12,0
		c0.16-0.29,0.31-0.6,0.47-0.89c-0.78-0.51-1.55-1.46-2.33-1.46c-16.59-0.09-33.16-0.09-49.75,0
		C20.29,33.47,19.54,34.45,18.78,34.98z"/>
	<path class="st0" d="M19,121.39c-0.12-0.42-0.27-0.71-0.28-1.01c-0.37-4.88-0.37-4.88,4.51-4.88c19.13,0,38.26-0.01,57.4-0.01
		c1.26,0,2.54,0,4.27,0c0-1.4,0-2.59,0-3.8c0-30.89-0.01-61.79,0.01-92.68c0.01-7.89,5.6-13.07,13.39-12.36
		c3.82,0.34,6.55,2.41,8.81,5.82c-2.05,0.28-3.74,0.36-5.33,0.78c-6.42,1.69-10.49,7.08-10.49,13.96
		c-0.03,30.07-0.02,60.12-0.02,90.19c0,1.23,0,2.48,0,4C67.12,121.39,43.17,121.39,19,121.39z"/>
	<path class="st0" d="M94.11,27.16c-0.03-7.05,5.18-11.88,12.46-11.76c6.69,0.11,11.64,5.08,11.49,11.76
		C110.08,27.16,102.1,27.16,94.11,27.16z"/>
	<path d="M72.52,18.28c-17.83,0-35.45,0-53.08,0c-0.83-2-0.21-2.72,1.87-2.72c16.38,0.04,32.76,0.04,49.14,0
		C72.38,15.56,73.35,16.05,72.52,18.28z"/>
	<path d="M19.41,48.14c17.63,0,35.26,0,52.88,0c0.61,2.54,0.61,2.66-1.51,2.67C54.19,50.83,37.6,50.84,21,50.74
		c-0.75,0-1.49-1.17-2.23-1.79C18.98,48.68,19.19,48.41,19.41,48.14z"/>
	<path d="M72.61,59.48c-17.84,0-35.57,0-53.26,0c-0.61-1.81-0.26-2.66,1.78-2.66c16.59,0.04,33.18,0.04,49.77,0
		C73.12,56.81,72.95,57.94,72.61,59.48z"/>
	<path d="M19.34,89.4c17.75,0,35.46,0,53.16,0c0.65,1.72,0.41,2.66-1.65,2.66c-16.59-0.03-33.17-0.04-49.76,0
		C19,92.06,18.8,91.14,19.34,89.4z"/>
	<path d="M19.48,98.08c12.06,0,23.96,0,35.86,0c5.1,0,10.21-0.07,15.31,0.08c0.85,0.03,1.67,1.01,2.51,1.54
		c-0.17,0.31-0.33,0.64-0.5,0.95c-0.7,0.08-1.42,0.22-2.12,0.23c-16.27,0.01-32.54,0-48.81,0.03
		C19.93,100.9,18.37,100.87,19.48,98.08z"/>
	<path d="M19.44,24.65c0.71-0.06,1.44-0.17,2.18-0.17c16.16,0,32.32,0.01,48.48,0c1.67,0,3.43-0.18,2.48,2.57
		c-0.42,0.05-0.91,0.14-1.41,0.14c-16.47,0.01-32.95,0-49.43,0.02C19.96,27.22,18.34,27.25,19.44,24.65z"/>
	<path d="M72.55,68.35c-17.73,0-35.47,0-53.2,0c-0.59-1.72-0.35-2.65,1.73-2.64c16.6,0.04,33.18,0.05,49.78,0
		C73.02,65.7,73.09,66.7,72.55,68.35z"/>
	<path d="M19.36,80.52c17.8,0,35.45,0,53.15,0c0.72,1.86,0.34,2.66-1.85,2.66c-16.49-0.06-32.97-0.05-49.46-0.01
		C19.26,83.18,18.67,82.52,19.36,80.52z"/>
	<path d="M18.78,34.98c0.76-0.52,1.51-1.51,2.27-1.51c16.59-0.09,33.16-0.09,49.75,0c0.78,0,1.55,0.96,2.33,1.46
		c-0.16,0.29-0.31,0.6-0.47,0.89c-17.71,0-35.41,0-53.12,0C19.28,35.54,19.03,35.25,18.78,34.98z"/>
</g>
</svg>
