<svg xmlns="http://www.w3.org/2000/svg" viewBox="0 0 100 125" x="0px" y="0px"><title>Noun_Project_100Icon_1px_grid_thin</title><path d="M85,26H15a1,1,0,0,1,0-2H85a1,1,0,0,1,0,2Z"/><path d="M85,51H15a1,1,0,0,1,0-2H85a1,1,0,0,1,0,2Z"/><path d="M85,76H15a1,1,0,0,1,0-2H85a1,1,0,0,1,0,2Z"/><text x="0" y="115" fill="#000000" font-size="5px" font-weight="bold" font-family="'Helvetica Neue', Helvetica, Arial-Unicode, Arial, Sans-serif">Created by Ali Ali</text><text x="0" y="120" fill="#000000" font-size="5px" font-weight="bold" font-family="'Helvetica Neue', Helvetica, Arial-Unicode, Arial, Sans-serif">from the Noun Project</text></svg>